# xmcd
#
# Track frame offsets: 
#        150
#        9261
#        23198
#        36015
#        49958
#        60609
#        71294
#        85252
#        98621
#        107751
#        120568
#        134696
#        146779
#        158946
#        173344
#        185823
#        198135
#        210399
#        223620
#        235296
#        245770
#        258704
#        270239
#        282831
#
# Disc length: 3944 seconds
#
# Revision: 1
# Processed by: cddbd v1.5.2PL0 Copyright (c) Steve Scherf et al.
# Submitted via: ExactAudioCopy v1.0b1
#
DISCID=570f6618
DTITLE=Little Willie Littlefield - Boogie, Blues and Bounce: The Moder
DTITLE=n Recordings, Vol. 2
DYEAR=2005
DGENRE=Blues
TTITLE0=Beehive Jump (demo) (mono)
TTITLE1=Once Was Lucky (mono)
TTITLE2=Tell Me Baby (mono)
TTITLE3=Blues At Sunset (The Moon Is Risin') (mono)
TTITLE4=So Fine And Brown (mono)
TTITLE5=Open Road Blues (mono)
TTITLE6=Mello Cats (mono)
TTITLE7=Merry Christmas (mono)
TTITLE8=Hucklebuck With Willie (demo) (mono)
TTITLE9=Frightened (mono)
TTITLE10=Just Before Sunrise (mono)
TTITLE11=Lay Your Cards On The Table (demo) (mono)
TTITLE12=Drinkin' Hadacol (mono)
TTITLE13=Why Leave Me All Alone (mono)
TTITLE14=Rockin' Chair Mama (demo) (mono)
TTITLE15=The Moon Is Risin' (mono)
TTITLE16=Hurry Baby (mono)
TTITLE17=Train Whistle Blues (demo) (mono)
TTITLE18=I Want You (mono)
TTITLE19=Drinkin' Hadacol (demo) (mono)
TTITLE20=Midnight Whistle (mono)
TTITLE21=Fuss And Fight (demo) (mono)
TTITLE22=Come On Baby (mono)
TTITLE23=Farewell (mono)
EXTD=
EXTT0=
EXTT1=
EXTT2=
EXTT3=
EXTT4=
EXTT5=
EXTT6=
EXTT7=
EXTT8=
EXTT9=
EXTT10=
EXTT11=
EXTT12=
EXTT13=
EXTT14=
EXTT15=
EXTT16=
EXTT17=
EXTT18=
EXTT19=
EXTT20=
EXTT21=
EXTT22=
EXTT23=
PLAYORDER=
